<?xml version="1.0" encoding="UTF-8"?>
<svg version="1.1" viewBox="0 0 2048 2048" width="160" height="160" xmlns="http://www.w3.org/2000/svg">
<path transform="translate(0)" d="m0 0h2048v2048h-2048z" fill="#fff"/>
<path transform="translate(986,1044)" d="m0 0h27l8 4 6 9 4 11 2 10 1 12v21l-3 12-6 9-9 7-12 7-2 2 1 5 20 20 11 9 13 10 10 9 5 8-1 5-4 1-11-7-10-9-11-9-15-11-12-8-13-11-9-6-6-2-18-1-3 9v36l1 15-9-2-5-3-2-28-1-26-1-45-2-15 3-23 1-16 4-4z" fill="#171717"/>
<path transform="translate(1420,1112)" d="m0 0 12 3 16 8 15 10 8 9 7 12 2 6v19l-6 22-5 23-6 16-4 6-6 5-11 4-12 2h-17l-14-3-10-6-7-8-6-12-2-10-1-18 1-13 5-17 8-16 10-18 9-11 8-9z" fill="#fff"/>
<path transform="translate(1578,1149)" d="m0 0 12 1 12 5 13 9 9 10 8 16 3 11v13l-3 6-8 6-28 10-11 6-4 4 7 7 8 7 10 9 11 9 14 14 5 9v2l-6-1-13-10-13-11-12-9-15-8-11-6-8-4-11-2-4 4-1 3v44l-1 1-7-1-3-4-1-4v-41l4-30 4-15 10-26 7-11 11-18 3-3z" fill="#171717"/>
<path transform="translate(1055,757)" d="m0 0 3 1 6 10 3 13 8 24 5 17 9 25 5 13 6 15 9 24 8 23 7 15 1 9-4 1-8-6-8-14-8-19-8-22-5-6-7-3-9 1-26 6-25 5-4 3-8 17-8 16-6 9-5 6-5 3-7 1 1-6 8-15 9-17 8-17 4-13 3-12 11-27 5-13 6-12 6-18 10-19 5-12z" fill="#171717"/>
<path transform="translate(1413,1099)" d="m0 0h9l24 7 15 6 11 7 9 10 8 13 4 12 1 7v10l-5 39-5 17-10 24-6 8-6 4-15 5-14 3h-24l-11-3-16-8-12-12-9-15-6-18-1-13 2-16 7-17 5-12 12-19 6-10 8-11 17-17zm7 13-9 7-12 14-10 17-8 16-5 13-2 8-1 19 2 18 5 13 8 10 9 6 10 3 6 1h17l15-3 10-4 7-8 5-12 4-14 5-23 4-14v-19l-4-10-9-13-8-7-13-8-14-7z" fill="#171717"/>
<path transform="translate(405,1139)" d="m0 0 4 1-1 5-8 5-12 6-13 10-13 13-7 8-8 9-18 22-8 13-11 22-4 9-4 8-1 3v20l3 8 7 9 4 5 9 6 6 1h13l25-2 24-3 16-4 17-7 20-12 14-11 8-9 8-13 5-13-1-5-4-6-5-2h-11l-26 6-6 1h-8l-5-2v-4l9-4 29-8 19-6h16l4 4 1 2v22l-3 10-8 16-13 16-8 8-14 11-16 9-19 8-12 4-27 4-42 2h-9l-10-5-7-7-8-14-5-11-2-10 1-14 4-15 8-18 14-25 4-9 10-9 8-7 9-10 5-4 7-8 14-14 11-7 11-5z" fill="#171717"/>
<path transform="translate(482,774)" d="m0 0h12l8 5-1 4-11 3-24 4-15 5-11 7-13 13-10 16-8 16-9 21-5 18-3 18v33l2 11 6 10 8 7 14 7 22 3 36 2h29l13-3 10-5 11-7 5 1-1 7-7 8-5 4-15 5-15 4h-46l-18-2-21-5-19-7-11-8-8-10-5-13-2-11v-22l2-18 4-17 8-22 13-28 9-15 9-12 9-8 16-9 12-5 14-4z" fill="#171717"/>
<path transform="translate(731,1059)" d="m0 0 4 1 2 2 4 17 5 19 4 14 1 63 3 19 3 11 1 13-2 3h-9l-5-5-6-18-9-20-4-9-6-10-8-16-13-18-9-8-11-7-1 4v20l4 27 10 30 10 22 1 7-3 1-7-6-12-25-9-29-5-22-3-20-1-5v-9l1-7-6-10-2-7v-7l4-5 4-2h6l7 5 6 9 10 18 14 21 8 10 10 13 8 5h2l4-10v-28l-5-36-1-13z" fill="#171717"/>
<path transform="translate(1152,1072)" d="m0 0 5 1 4 7-1 11 5 16 6 16 5 27 2 18 3 12 7 16 8 15 1 5-2 1-8-3-6-5-8-18-5-12-2-2-16 2-21 3-8 11-8 12-5 3h-8l1-6 8-16 6-26 12-38 10-26 4-9 7-11z" fill="#171717"/>
<path transform="translate(991,1055)" d="m0 0h12l7 4 5 10 3 13 1 9v14l-2 11-4 6-5 4-10 5-19 3-21 2h-9l-1-4-1-22v-34l2-10 2-2 23-6z" fill="#fff"/>
<path transform="translate(1487,818)" d="m0 0 6 1 4 4v7l-7 23-5 25-3 27-7 30-1 15 4 8 11 13 9 8 8 5 6 2h17l11-4 9-6 6-5 9-11 10-14 12-21 8-15 10-21 15-34 7-16 5-6 6 2 2 4-9 21-10 24-16 33-11 23-9 16-12 17-11 11-11 7-11 5-15 4h-9l-14-5-12-7-13-10-9-10-5-10-1-5v-14l6-34 7-33 6-30 2-9v-12z" fill="#171717"/>
<path transform="translate(897,725)" d="m0 0h8l-1 5-5 5-2 1-60 4h-16v32l2 36 3 25 3 17 3 40 4 23 5 22v5h-11l-3-4-4-16-6-40-2-10-2-27-1-7-1-20-3-38-3-23-4-11-3-1h-42l-5-2-2-3v-7l2-1 29-2 25-1h70l20-1z" fill="#171717"/>
<path transform="translate(568,1069)" d="m0 0h4l1 5-5 6-9 4-16 2-21 6-3 1 2 13 13 30 8 18 4 1 35-10 12-3h5v7l-10 4-16 6-14 6-4 2v8l4 17 8 22 7 20 5 5 3 2 5-1 12-6 10-9 19-19 14-10 4-2h4l-2 5-11 13-10 10-7 8-10 10-11 9-10 8-9 5-4-2-6-7-4-6-5-17-9-24-7-14-7-9-1-4v-6l-1-5-1-9-5-12-12-25-13-26-2-2 1-4 30-11z" fill="#171717"/>
<path transform="translate(1235,748)" d="m0 0h11l24 2 7 1 4-1 4 1h18l7 5 2 3 25 5 26 6 17 7 5 4v5l-17-1-40-13-16-3-5 1-4 9-5 13-11 64-12 58-6 20-3 5-3 1h-7l1-10 8-32 7-35 3-18v-8l7-23 6-31 1-6v-8l-21-6-26-5-6-4-2-5z" fill="#171717"/>
<path transform="translate(1713,1178)" d="m0 0h37l14 3 8 4 3 4-7 1-19-1h-40l-10 2-3 1-2 4-2 6v12l4 10 7 8 12 6 32 8 11 6 7 8 5 10 2 7v14l-6 12-8 9-10 6-23 7-21 5h-13l-6-3-2-2 1-5 3-1h16l17-3 16-5 11-7 9-7 5-6 1-3v-9l-3-9-5-7-12-6-25-6-16-6-10-7-8-8-5-9-1-9 2-14 5-10 7-6 5-2z" fill="#171717"/>
<path transform="translate(871,1044)" d="m0 0h6v7l-3 3-4 1-48 2-3 1-1 2v26l3 26 2 3 6 2 1 3 5 1h19l7-3 6 1 1 2v7l-5 5h-38l-1 3v16l3 36 4 13v2l39 1 2 1v4l-6 2h-35l-12-1-4-61-3-30-6-39-2-23v-8l1-1 43-2z" fill="#171717"/>
<path transform="translate(1243,1067)" d="m0 0 23 1 24 3 13 3 3 3 4 1v-3l13-2 7 1 9 4 10 4 16 5 2 4-4 2h-7l-25-6-8-1-4 5-3 12-4 8-3 5-4 24-3 34-3 55-1 26-1 2h-7l-3-2v-16l4-49 5-57 5-30 1-15 1-4h-3l-2 2-4-4-14-4-33-2-4-1-2-6z" fill="#171717"/>
<path transform="translate(1579,1166)" d="m0 0h11l8 4 12 11 9 10 5 8-1 5-9 7-12 6-25 7-8 1h-15l-2-3 1-8 6-17 8-16 7-11z" fill="#fff"/>
<path transform="translate(634,787)" d="m0 0 7 1 3 3 7 17 1 21 5 39 4 20 4 41 4 20 7 20v2l-7-1-6-3-7-15-9-56-3-9 1-1-1-18-4-38-5-24-5-15v-3z" fill="#171717"/>
<path transform="translate(1053,796)" d="m0 0 2 2 10 25 6 20 2 12-8 5-17 5-17 3h-7l1-6 6-16 14-35 7-14z" fill="#fff"/>
<path transform="translate(1147,1110)" d="m0 0h4l5 12 5 19 3 14v7l-7 3-7 1h-20v-9l3-12 5-14 4-14z" fill="#fff"/>
<path transform="translate(1019,707)" d="m0 0h99l1 5-2 3-13 3-26 1h-47l-10-2-3-7z" fill="#171717"/>
<path transform="translate(324,1114)" d="m0 0h5l1 1v18l-1 16-3 7-6 5-8 1-20-1-10-2-2-4 4-2 37-4 1-29z" fill="#171717"/>
<path transform="translate(619,689)" d="m0 0 6 1 4 5 1 3v8l-4 6-8 4h-10l-7-3 1-4 8-8 8-11z" fill="#171717"/>
</svg>
